<?xml version="1.0" standalone="no"?>
<!DOCTYPE svg PUBLIC "-//W3C//DTD SVG 20010904//EN"
 "http://www.w3.org/TR/2001/REC-SVG-20010904/DTD/svg10.dtd">
<svg version="1.0" xmlns="http://www.w3.org/2000/svg"
 width="500.000000pt" height="180.000000pt" viewBox="0 0 500.000000 180.000000"
 preserveAspectRatio="xMidYMid meet">
<metadata>
Created by potrace 1.15, written by Peter Selinger 2001-2017
</metadata>
<g transform="translate(0.000000,180.000000) scale(0.100000,-0.100000)"
fill="#000000" stroke="none">
<path d="M763 1528 c-54 -57 -86 -144 -113 -303 l-17 -100 -55 -7 c-219 -28
-378 -105 -378 -183 0 -76 137 -145 359 -179 l74 -12 17 -100 c27 -156 56
-236 111 -299 42 -47 83 -48 126 -2 54 56 86 143 113 301 l17 100 80 12 c89
12 209 46 263 74 89 45 116 115 65 166 -49 49 -205 103 -349 122 l-59 7 -17
100 c-27 159 -59 246 -113 303 -22 23 -40 32 -62 32 -22 0 -40 -9 -62 -32z"/>
<path d="M1807 1186 c-77 -28 -114 -89 -104 -173 6 -53 30 -90 78 -118 29 -17
58 -21 209 -25 l175 -5 3 -43 c3 -38 0 -43 -23 -52 -14 -6 -116 -10 -226 -10
l-199 0 0 -50 0 -50 226 0 c214 0 228 1 265 22 75 42 102 159 52 226 -47 63
-59 67 -249 70 -171 3 -175 4 -190 27 -13 21 -14 28 -2 52 l13 28 213 3 213 2
-3 53 -3 52 -205 2 c-154 2 -215 -1 -243 -11z"/>
<path d="M2427 1194 c-4 -4 -7 -126 -7 -271 l0 -263 60 0 60 0 -2 268 -3 267
-50 3 c-28 2 -54 0 -58 -4z"/>
<path d="M2797 1186 c-46 -17 -81 -48 -97 -86 -7 -18 -10 -83 -8 -188 3 -179
9 -196 78 -233 31 -17 60 -19 257 -19 l223 0 0 160 0 160 -150 0 -150 0 0 -55
0 -55 90 0 90 0 0 -56 0 -55 -148 3 c-108 2 -154 7 -165 17 -14 11 -17 35 -17
146 0 115 2 134 18 148 16 15 47 17 226 17 l207 0 -3 53 -3 52 -205 2 c-154 2
-215 -1 -243 -11z"/>
<path d="M3407 1194 c-4 -4 -7 -126 -7 -271 l0 -263 60 0 60 0 0 215 0 215 95
0 95 0 0 -215 0 -215 55 0 55 0 0 215 0 215 84 0 c61 0 87 -4 96 -14 8 -11 11
-73 10 -215 l-1 -201 61 0 61 0 -3 219 c-3 245 -5 253 -79 296 -32 19 -55 20
-334 23 -165 2 -304 0 -308 -4z"/>
<path d="M4280 1146 l0 -56 188 0 c213 0 222 -3 222 -73 l0 -37 -162 0 c-143
0 -167 -2 -204 -21 -78 -37 -105 -134 -61 -219 38 -75 57 -80 314 -80 l223 0
0 214 c0 204 -1 214 -23 246 -45 69 -68 75 -294 78 l-203 3 0 -55z m410 -325
c0 -27 -4 -51 -10 -53 -5 -2 -78 -1 -162 2 l-153 5 -3 33 c-6 63 -8 62 168 62
l160 0 0 -49z"/>
</g>
</svg>
